%TF.GenerationSoftware,KiCad,Pcbnew,(6.0.5)*%
%TF.CreationDate,2022-11-05T01:05:16-04:00*%
%TF.ProjectId,TKL,544b4c2e-6b69-4636-9164-5f7063625858,rev?*%
%TF.SameCoordinates,Original*%
%TF.FileFunction,Profile,NP*%
%FSLAX46Y46*%
G04 Gerber Fmt 4.6, Leading zero omitted, Abs format (unit mm)*
G04 Created by KiCad (PCBNEW (6.0.5)) date 2022-11-05 01:05:16*
%MOMM*%
%LPD*%
G01*
G04 APERTURE LIST*
%TA.AperFunction,Profile*%
%ADD10C,0.100000*%
%TD*%
G04 APERTURE END LIST*
D10*
X476218350Y-222489950D02*
G75*
G03*
X475456300Y-221727950I-762050J-50D01*
G01*
X341777468Y-344770482D02*
X369093750Y-344770482D01*
X465931250Y-233316750D02*
G75*
G03*
X466693250Y-232554700I-50J762050D01*
G01*
X466693300Y-222489900D02*
X466693250Y-232554700D01*
X476980250Y-233316700D02*
X523875000Y-233316700D01*
X393700000Y-233316700D02*
G75*
G03*
X392112500Y-234904200I0J-1587500D01*
G01*
X200025000Y-241254200D02*
X209550000Y-241254200D01*
X198437500Y-234904200D02*
X198437500Y-239666700D01*
X392112500Y-234904200D02*
X392112500Y-239666700D01*
X198437500Y-239666700D02*
G75*
G03*
X200025000Y-241254200I1587500J0D01*
G01*
X528637500Y-330947950D02*
X522287500Y-330947950D01*
X338602468Y-349997950D02*
X184943750Y-349997950D01*
X379412500Y-239666700D02*
G75*
G03*
X381000000Y-241254200I1587500J0D01*
G01*
X528637500Y-309516700D02*
G75*
G03*
X530225000Y-307929200I0J1587500D01*
G01*
X370681250Y-348410450D02*
G75*
G03*
X372268750Y-349997950I1587550J50D01*
G01*
X379412500Y-234904200D02*
X379412500Y-239666700D01*
X520700000Y-311104200D02*
X520700000Y-329360450D01*
X476218300Y-232554700D02*
G75*
G03*
X476980250Y-233316700I762000J0D01*
G01*
X530225000Y-239666700D02*
X523875000Y-233316700D01*
X465931250Y-233316700D02*
X393700000Y-233316700D01*
X184943750Y-233316700D02*
X196850000Y-233316700D01*
X467455300Y-221727900D02*
X475456300Y-221727950D01*
X390525000Y-241254200D02*
G75*
G03*
X392112500Y-239666700I0J1587500D01*
G01*
X528637500Y-309516700D02*
X522287500Y-309516700D01*
X530225000Y-307929200D02*
X530225000Y-239666700D01*
X211137500Y-234904200D02*
X211137500Y-239666700D01*
X381000000Y-241254200D02*
X390525000Y-241254200D01*
X476218250Y-232554700D02*
X476218300Y-222489950D01*
X530225000Y-343647950D02*
X530225000Y-332535450D01*
X523875000Y-349997950D02*
X530225000Y-343647950D01*
X467455300Y-221727900D02*
G75*
G03*
X466693300Y-222489900I0J-762000D01*
G01*
X340189968Y-348410450D02*
X340189968Y-346357982D01*
X178593750Y-343647950D02*
X178593750Y-239666700D01*
X370681250Y-346357982D02*
X370681250Y-348410450D01*
X178593750Y-239666700D02*
X184943750Y-233316700D01*
X184943750Y-349997950D02*
X178593750Y-343647950D01*
X520699950Y-329360450D02*
G75*
G03*
X522287500Y-330947950I1587550J50D01*
G01*
X209550000Y-241254200D02*
G75*
G03*
X211137500Y-239666700I0J1587500D01*
G01*
X338602468Y-349997868D02*
G75*
G03*
X340189968Y-348410450I32J1587468D01*
G01*
X379412500Y-234904200D02*
G75*
G03*
X377825000Y-233316700I-1587500J0D01*
G01*
X370681218Y-346357982D02*
G75*
G03*
X369093750Y-344770482I-1587518J-18D01*
G01*
X198437500Y-234904200D02*
G75*
G03*
X196850000Y-233316700I-1587500J0D01*
G01*
X341777468Y-344770468D02*
G75*
G03*
X340189968Y-346357982I32J-1587532D01*
G01*
X212725000Y-233316700D02*
X377825000Y-233316700D01*
X372268750Y-349997950D02*
X523875000Y-349997950D01*
X212725000Y-233316700D02*
G75*
G03*
X211137500Y-234904200I0J-1587500D01*
G01*
X530225050Y-332535450D02*
G75*
G03*
X528637500Y-330947950I-1587550J-50D01*
G01*
X522287500Y-309516700D02*
G75*
G03*
X520700000Y-311104200I0J-1587500D01*
G01*
M02*
