%TF.GenerationSoftware,KiCad,Pcbnew,(6.0.5)*%
%TF.CreationDate,2022-11-05T01:05:16-04:00*%
%TF.ProjectId,TKL,544b4c2e-6b69-4636-9164-5f7063625858,rev?*%
%TF.SameCoordinates,Original*%
%TF.FileFunction,Paste,Bot*%
%TF.FilePolarity,Positive*%
%FSLAX46Y46*%
G04 Gerber Fmt 4.6, Leading zero omitted, Abs format (unit mm)*
G04 Created by KiCad (PCBNEW (6.0.5)) date 2022-11-05 01:05:16*
%MOMM*%
%LPD*%
G01*
G04 APERTURE LIST*
G04 Aperture macros list*
%AMRoundRect*
0 Rectangle with rounded corners*
0 $1 Rounding radius*
0 $2 $3 $4 $5 $6 $7 $8 $9 X,Y pos of 4 corners*
0 Add a 4 corners polygon primitive as box body*
4,1,4,$2,$3,$4,$5,$6,$7,$8,$9,$2,$3,0*
0 Add four circle primitives for the rounded corners*
1,1,$1+$1,$2,$3*
1,1,$1+$1,$4,$5*
1,1,$1+$1,$6,$7*
1,1,$1+$1,$8,$9*
0 Add four rect primitives between the rounded corners*
20,1,$1+$1,$2,$3,$4,$5,0*
20,1,$1+$1,$4,$5,$6,$7,0*
20,1,$1+$1,$6,$7,$8,$9,0*
20,1,$1+$1,$8,$9,$2,$3,0*%
G04 Aperture macros list end*
%ADD10RoundRect,0.135000X-0.135000X-0.185000X0.135000X-0.185000X0.135000X0.185000X-0.135000X0.185000X0*%
%ADD11RoundRect,0.140000X-0.170000X0.140000X-0.170000X-0.140000X0.170000X-0.140000X0.170000X0.140000X0*%
%ADD12RoundRect,0.150000X0.150000X-0.587500X0.150000X0.587500X-0.150000X0.587500X-0.150000X-0.587500X0*%
%ADD13RoundRect,0.075000X0.075000X-0.662500X0.075000X0.662500X-0.075000X0.662500X-0.075000X-0.662500X0*%
%ADD14RoundRect,0.075000X0.662500X-0.075000X0.662500X0.075000X-0.662500X0.075000X-0.662500X-0.075000X0*%
%ADD15R,1.100000X1.800000*%
%ADD16RoundRect,0.140000X-0.140000X-0.170000X0.140000X-0.170000X0.140000X0.170000X-0.140000X0.170000X0*%
%ADD17RoundRect,0.140000X0.140000X0.170000X-0.140000X0.170000X-0.140000X-0.170000X0.140000X-0.170000X0*%
%ADD18R,1.200000X0.900000*%
%ADD19RoundRect,0.135000X0.135000X0.185000X-0.135000X0.185000X-0.135000X-0.185000X0.135000X-0.185000X0*%
%ADD20RoundRect,0.150000X0.150000X-0.512500X0.150000X0.512500X-0.150000X0.512500X-0.150000X-0.512500X0*%
%ADD21RoundRect,0.250000X-0.625000X0.375000X-0.625000X-0.375000X0.625000X-0.375000X0.625000X0.375000X0*%
%ADD22RoundRect,0.135000X-0.185000X0.135000X-0.185000X-0.135000X0.185000X-0.135000X0.185000X0.135000X0*%
G04 APERTURE END LIST*
D10*
%TO.C,R1*%
X500378000Y-303293700D03*
X501398000Y-303293700D03*
%TD*%
D11*
%TO.C,C1*%
X493268000Y-302305700D03*
X493268000Y-303265700D03*
%TD*%
D12*
%TO.C,U3*%
X476565000Y-291404200D03*
X474665000Y-291404200D03*
X475615000Y-289529200D03*
%TD*%
D13*
%TO.C,U2*%
X485350000Y-307329200D03*
X484850000Y-307329200D03*
X484350000Y-307329200D03*
X483850000Y-307329200D03*
X483350000Y-307329200D03*
X482850000Y-307329200D03*
X482350000Y-307329200D03*
X481850000Y-307329200D03*
X481350000Y-307329200D03*
X480850000Y-307329200D03*
X480350000Y-307329200D03*
X479850000Y-307329200D03*
D14*
X478437500Y-305916700D03*
X478437500Y-305416700D03*
X478437500Y-304916700D03*
X478437500Y-304416700D03*
X478437500Y-303916700D03*
X478437500Y-303416700D03*
X478437500Y-302916700D03*
X478437500Y-302416700D03*
X478437500Y-301916700D03*
X478437500Y-301416700D03*
X478437500Y-300916700D03*
X478437500Y-300416700D03*
D13*
X479850000Y-299004200D03*
X480350000Y-299004200D03*
X480850000Y-299004200D03*
X481350000Y-299004200D03*
X481850000Y-299004200D03*
X482350000Y-299004200D03*
X482850000Y-299004200D03*
X483350000Y-299004200D03*
X483850000Y-299004200D03*
X484350000Y-299004200D03*
X484850000Y-299004200D03*
X485350000Y-299004200D03*
D14*
X486762500Y-300416700D03*
X486762500Y-300916700D03*
X486762500Y-301416700D03*
X486762500Y-301916700D03*
X486762500Y-302416700D03*
X486762500Y-302916700D03*
X486762500Y-303416700D03*
X486762500Y-303916700D03*
X486762500Y-304416700D03*
X486762500Y-304916700D03*
X486762500Y-305416700D03*
X486762500Y-305916700D03*
%TD*%
D15*
%TO.C,SW2*%
X500943000Y-295304200D03*
X500943000Y-301504200D03*
X504643000Y-301504200D03*
X504643000Y-295304200D03*
%TD*%
%TO.C,SW1*%
X498737500Y-295304200D03*
X498737500Y-301504200D03*
X495037500Y-301504200D03*
X495037500Y-295304200D03*
%TD*%
D16*
%TO.C,C10*%
X476857000Y-298721700D03*
X475897000Y-298721700D03*
%TD*%
D17*
%TO.C,C9*%
X475389000Y-287926700D03*
X476349000Y-287926700D03*
%TD*%
%TO.C,C8*%
X484914000Y-297324700D03*
X485874000Y-297324700D03*
%TD*%
D11*
%TO.C,C7*%
X488442000Y-307456700D03*
X488442000Y-306496700D03*
%TD*%
D16*
%TO.C,C6*%
X486763000Y-309643700D03*
X485803000Y-309643700D03*
%TD*%
%TO.C,C5*%
X482064000Y-309643700D03*
X481104000Y-309643700D03*
%TD*%
D17*
%TO.C,C4*%
X475925000Y-299864700D03*
X476885000Y-299864700D03*
%TD*%
D16*
%TO.C,C3*%
X475968000Y-293006700D03*
X475008000Y-293006700D03*
%TD*%
%TO.C,C2*%
X475968000Y-294149700D03*
X475008000Y-294149700D03*
%TD*%
D18*
%TO.C,D42*%
X353218750Y-285766700D03*
X353218750Y-282466700D03*
%TD*%
%TO.C,D19*%
X229393750Y-266716700D03*
X229393750Y-263416700D03*
%TD*%
%TO.C,D77*%
X486568750Y-342916700D03*
X486568750Y-339616700D03*
%TD*%
%TO.C,D23*%
X305593750Y-266716700D03*
X305593750Y-263416700D03*
%TD*%
%TO.C,D6*%
X315118750Y-242904200D03*
X315118750Y-239604200D03*
%TD*%
%TO.C,D20*%
X248443750Y-266716700D03*
X248443750Y-263416700D03*
%TD*%
%TO.C,D83*%
X505618750Y-342916700D03*
X505618750Y-339616700D03*
%TD*%
%TO.C,D72*%
X367506250Y-323866700D03*
X367506250Y-320566700D03*
%TD*%
%TO.C,D26*%
X362743750Y-266716700D03*
X362743750Y-263416700D03*
%TD*%
%TO.C,D11*%
X424656250Y-242904200D03*
X424656250Y-239604200D03*
%TD*%
%TO.C,D54*%
X262731250Y-304816700D03*
X262731250Y-301516700D03*
%TD*%
%TO.C,D52*%
X224631250Y-304816700D03*
X224631250Y-301516700D03*
%TD*%
%TO.C,D4*%
X262731250Y-242904200D03*
X262731250Y-239604200D03*
%TD*%
%TO.C,D36*%
X238918750Y-285766700D03*
X238918750Y-282466700D03*
%TD*%
%TO.C,D53*%
X243681250Y-304816700D03*
X243681250Y-301516700D03*
%TD*%
%TO.C,D68*%
X291306250Y-323866700D03*
X291306250Y-320566700D03*
%TD*%
%TO.C,D51*%
X201930000Y-303040700D03*
X201930000Y-306340700D03*
%TD*%
%TO.C,D8*%
X353218750Y-242904200D03*
X353218750Y-239604200D03*
%TD*%
%TO.C,D74*%
X405606250Y-323866700D03*
X405606250Y-320566700D03*
%TD*%
%TO.C,D18*%
X210343750Y-266716700D03*
X210343750Y-263416700D03*
%TD*%
%TO.C,D56*%
X300831250Y-304816700D03*
X300831250Y-301516700D03*
%TD*%
%TO.C,D65*%
X234156250Y-323866700D03*
X234156250Y-320566700D03*
%TD*%
%TO.C,D57*%
X319881250Y-304816700D03*
X319881250Y-301516700D03*
%TD*%
%TO.C,D75*%
X443706250Y-323866700D03*
X443706250Y-320566700D03*
%TD*%
%TO.C,D40*%
X315118750Y-285766700D03*
X315118750Y-282466700D03*
%TD*%
%TO.C,D28*%
X400843750Y-266716700D03*
X400843750Y-263416700D03*
%TD*%
%TO.C,D17*%
X191293750Y-266716700D03*
X191293750Y-263416700D03*
%TD*%
%TO.C,D2*%
X224631250Y-242904200D03*
X224631250Y-239604200D03*
%TD*%
%TO.C,D34*%
X196056250Y-285766700D03*
X196056250Y-282466700D03*
%TD*%
%TO.C,D7*%
X334168750Y-242904200D03*
X334168750Y-239604200D03*
%TD*%
%TO.C,D37*%
X257968750Y-285766700D03*
X257968750Y-282466700D03*
%TD*%
%TO.C,D58*%
X338931250Y-304816700D03*
X338931250Y-301516700D03*
%TD*%
%TO.C,D50*%
X524668750Y-285766700D03*
X524668750Y-282466700D03*
%TD*%
%TO.C,D24*%
X324643750Y-266716700D03*
X324643750Y-263416700D03*
%TD*%
%TO.C,D21*%
X267493750Y-266716700D03*
X267493750Y-263416700D03*
%TD*%
%TO.C,D79*%
X246062500Y-342916700D03*
X246062500Y-339616700D03*
%TD*%
D19*
%TO.C,R2*%
X498221000Y-235856700D03*
X497201000Y-235856700D03*
%TD*%
D18*
%TO.C,D12*%
X443706250Y-242904200D03*
X443706250Y-239604200D03*
%TD*%
%TO.C,D76*%
X505618750Y-323866700D03*
X505618750Y-320566700D03*
%TD*%
%TO.C,D64*%
X203200000Y-323866700D03*
X203200000Y-320566700D03*
%TD*%
%TO.C,D16*%
X524668750Y-242904200D03*
X524668750Y-239604200D03*
%TD*%
%TO.C,D84*%
X524668750Y-342916700D03*
X524668750Y-339616700D03*
%TD*%
%TO.C,D82*%
X457993750Y-342916700D03*
X457993750Y-339616700D03*
%TD*%
%TO.C,D14*%
X486568750Y-242904200D03*
X486568750Y-239604200D03*
%TD*%
%TO.C,D33*%
X524668750Y-266716700D03*
X524668750Y-263416700D03*
%TD*%
%TO.C,D32*%
X505618750Y-266716700D03*
X505618750Y-263416700D03*
%TD*%
%TO.C,D27*%
X381793750Y-266716700D03*
X381793750Y-263416700D03*
%TD*%
%TO.C,D70*%
X329406250Y-323866700D03*
X329406250Y-320566700D03*
%TD*%
%TO.C,D35*%
X219868750Y-285766700D03*
X219868750Y-282466700D03*
%TD*%
%TO.C,D29*%
X419893750Y-266716700D03*
X419893750Y-263416700D03*
%TD*%
%TO.C,D47*%
X455612500Y-285766700D03*
X455612500Y-282466700D03*
%TD*%
%TO.C,D55*%
X281781250Y-304816700D03*
X281781250Y-301516700D03*
%TD*%
%TO.C,D46*%
X429418750Y-285766700D03*
X429418750Y-282466700D03*
%TD*%
%TO.C,D39*%
X296068750Y-285766700D03*
X296068750Y-282466700D03*
%TD*%
%TO.C,D73*%
X386556250Y-323866700D03*
X386556250Y-320566700D03*
%TD*%
%TO.C,D61*%
X396081250Y-304816700D03*
X396081250Y-301516700D03*
%TD*%
%TO.C,D67*%
X272256250Y-323866700D03*
X272256250Y-320566700D03*
%TD*%
%TO.C,D31*%
X486568750Y-266716700D03*
X486568750Y-263416700D03*
%TD*%
%TO.C,D30*%
X450850000Y-266716700D03*
X450850000Y-263416700D03*
%TD*%
D20*
%TO.C,U1*%
X472659750Y-238740450D03*
X471709750Y-238740450D03*
X470759750Y-238740450D03*
X470759750Y-236465450D03*
X471709750Y-236465450D03*
X472659750Y-236465450D03*
%TD*%
D18*
%TO.C,D59*%
X357981250Y-304816700D03*
X357981250Y-301516700D03*
%TD*%
%TO.C,D25*%
X343693750Y-266716700D03*
X343693750Y-263416700D03*
%TD*%
%TO.C,D15*%
X508381000Y-241826700D03*
X508381000Y-245126700D03*
%TD*%
%TO.C,D81*%
X407987500Y-342916700D03*
X407987500Y-339616700D03*
%TD*%
D21*
%TO.C,F1*%
X468661750Y-237472950D03*
X468661750Y-240272950D03*
%TD*%
D18*
%TO.C,D63*%
X448468750Y-304816700D03*
X448468750Y-301516700D03*
%TD*%
%TO.C,D22*%
X286543750Y-266716700D03*
X286543750Y-263416700D03*
%TD*%
%TO.C,D49*%
X505618750Y-285766700D03*
X505618750Y-282466700D03*
%TD*%
%TO.C,D5*%
X281781250Y-242904200D03*
X281781250Y-239604200D03*
%TD*%
%TO.C,D69*%
X310356250Y-323866700D03*
X310356250Y-320566700D03*
%TD*%
%TO.C,D44*%
X391318750Y-285766700D03*
X391318750Y-282466700D03*
%TD*%
%TO.C,D3*%
X243681250Y-242904200D03*
X243681250Y-239604200D03*
%TD*%
%TO.C,D10*%
X405606250Y-242904200D03*
X405606250Y-239604200D03*
%TD*%
%TO.C,D9*%
X372268750Y-242904200D03*
X372268750Y-239604200D03*
%TD*%
%TO.C,D45*%
X410368750Y-285766700D03*
X410368750Y-282466700D03*
%TD*%
%TO.C,D48*%
X486568750Y-285766700D03*
X486568750Y-282466700D03*
%TD*%
%TO.C,D1*%
X191293750Y-242904200D03*
X191293750Y-239604200D03*
%TD*%
%TO.C,D71*%
X348456250Y-323866700D03*
X348456250Y-320566700D03*
%TD*%
%TO.C,D13*%
X462756250Y-242904200D03*
X462756250Y-239604200D03*
%TD*%
%TO.C,D41*%
X334168750Y-285766700D03*
X334168750Y-282466700D03*
%TD*%
%TO.C,D60*%
X377031250Y-304816700D03*
X377031250Y-301516700D03*
%TD*%
%TO.C,D43*%
X372268750Y-285766700D03*
X372268750Y-282466700D03*
%TD*%
%TO.C,D66*%
X253206250Y-323866700D03*
X253206250Y-320566700D03*
%TD*%
%TO.C,D80*%
X327025000Y-342916700D03*
X327025000Y-339616700D03*
%TD*%
%TO.C,D38*%
X277018750Y-285766700D03*
X277018750Y-282466700D03*
%TD*%
%TO.C,D62*%
X415131250Y-304816700D03*
X415131250Y-301516700D03*
%TD*%
%TO.C,D78*%
X196056250Y-342916700D03*
X196056250Y-339616700D03*
%TD*%
D22*
%TO.C,R3*%
X193802000Y-300624700D03*
X193802000Y-301644700D03*
%TD*%
M02*
