M48
; DRILL file {KiCad (6.0.5)} date Sat Nov  5 01:05:18 2022
; FORMAT={-:-/ absolute / metric / decimal}
; #@! TF.CreationDate,2022-11-05T01:05:18-04:00
; #@! TF.GenerationSoftware,Kicad,Pcbnew,(6.0.5)
; #@! TF.FileFunction,Plated,1,2,PTH
FMAT,2
METRIC
; #@! TA.AperFunction,Plated,PTH,ViaDrill
T1C0.300
; #@! TA.AperFunction,Plated,PTH,ComponentDrill
T2C0.700
; #@! TA.AperFunction,Plated,PTH,ComponentDrill
T3C0.800
; #@! TA.AperFunction,Plated,PTH,ComponentDrill
T4C1.200
; #@! TA.AperFunction,Plated,PTH,ComponentDrill
T5C1.524
%
G90
G05
T1
X193.802Y-302.786
X466.962Y-285.532
X466.962Y-286.421
X468.344Y-229.602
X468.344Y-230.745
X468.789Y-242.873
X468.789Y-243.762
X468.979Y-266.495
X468.979Y-267.384
X469.995Y-230.745
X470.186Y-240.27
X471.71Y-240.016
X473.234Y-240.397
X473.964Y-294.15
X474.853Y-298.722
X474.853Y-299.865
X475.52Y-242.873
X475.52Y-243.762
X476.631Y-289.07
X476.853Y-266.495
X476.853Y-267.384
X476.885Y-297.706
X477.012Y-293.007
X477.012Y-294.15
X477.329Y-323.667
X477.52Y-291.61
X480.06Y-300.754
X481.076Y-310.66
X481.266Y-285.514
X481.266Y-286.403
X481.584Y-305.58
X482.6Y-303.04
X482.724Y-295.801
X484.476Y-295.801
X485.013Y-303.802
X485.14Y-300.754
X485.14Y-305.58
X485.299Y-342.949
X485.902Y-310.66
X486.918Y-297.325
X488.315Y-303.29
X489.458Y-304.543
X489.458Y-306.596
X491.712Y-321.994
X491.966Y-342.717
X492.601Y-321.994
X492.855Y-343.516
X493.268Y-301.389
X496.189Y-235.857
X498.729Y-303.167
X502.285Y-303.294
X509.909Y-275.258
X510.254Y-291.895
X510.308Y-243.654
X510.381Y-242.842
X510.413Y-241.953
X511.143Y-291.895
X512.065Y-291.907
X513.08Y-291.864
T2
X469.856Y-228.467
X470.656Y-227.267
X471.456Y-228.467
X472.256Y-227.267
X473.056Y-228.467
T4
X193.992Y-297.773
X196.532Y-297.773
X501.174Y-235.86
X503.714Y-235.86
T5
X185.619Y-236.46
X185.619Y-260.273
X190.381Y-279.323
X190.381Y-336.473
X190.619Y-235.96
X190.619Y-259.773
X192.762Y-306.873
X195.381Y-278.823
X195.381Y-335.973
X197.525Y-317.423
X197.762Y-306.373
X202.525Y-316.923
X204.669Y-260.273
X209.669Y-259.773
X214.194Y-279.323
X218.956Y-236.46
X218.956Y-298.373
X219.194Y-278.823
X223.719Y-260.273
X223.956Y-235.96
X223.956Y-297.873
X228.481Y-317.423
X228.719Y-259.773
X233.244Y-279.323
X233.481Y-316.923
X238.006Y-236.46
X238.006Y-298.373
X238.244Y-278.823
X240.387Y-336.473
X242.769Y-260.273
X243.006Y-235.96
X243.006Y-297.873
X245.387Y-335.973
X247.531Y-317.423
X247.769Y-259.773
X252.294Y-279.323
X252.531Y-316.923
X257.056Y-236.46
X257.056Y-298.373
X257.294Y-278.823
X261.819Y-260.273
X262.056Y-235.96
X262.056Y-297.873
X266.581Y-317.423
X266.819Y-259.773
X271.344Y-279.323
X271.581Y-316.923
X276.106Y-236.46
X276.106Y-298.373
X276.344Y-278.823
X280.869Y-260.273
X281.106Y-235.96
X281.106Y-297.873
X285.631Y-317.423
X285.869Y-259.773
X290.394Y-279.323
X290.631Y-316.923
X295.156Y-298.373
X295.394Y-278.823
X299.919Y-260.273
X300.156Y-297.873
X304.681Y-317.423
X304.919Y-259.773
X309.444Y-236.46
X309.444Y-279.323
X309.681Y-316.923
X314.206Y-298.373
X314.444Y-235.96
X314.444Y-278.823
X318.969Y-260.273
X319.206Y-297.873
X321.35Y-336.473
X323.731Y-317.423
X323.969Y-259.773
X326.35Y-335.973
X328.494Y-236.46
X328.494Y-279.323
X328.731Y-316.923
X333.256Y-298.373
X333.494Y-235.96
X333.494Y-278.823
X338.019Y-260.273
X338.256Y-297.873
X342.781Y-317.423
X343.019Y-259.773
X347.544Y-236.46
X347.544Y-279.323
X347.781Y-316.923
X352.306Y-298.373
X352.544Y-235.96
X352.544Y-278.823
X357.069Y-260.273
X357.306Y-297.873
X361.831Y-317.423
X362.069Y-259.773
X366.594Y-236.46
X366.594Y-279.323
X366.831Y-316.923
X371.356Y-298.373
X371.594Y-235.96
X371.594Y-278.823
X376.119Y-260.273
X376.356Y-297.873
X380.881Y-317.423
X381.119Y-259.773
X385.644Y-279.323
X385.881Y-316.923
X390.406Y-298.373
X390.644Y-278.823
X395.169Y-260.273
X395.406Y-297.873
X399.931Y-236.46
X399.931Y-317.423
X400.169Y-259.773
X402.312Y-336.473
X404.694Y-279.323
X404.931Y-235.96
X404.931Y-316.923
X407.312Y-335.973
X409.456Y-298.373
X409.694Y-278.823
X414.219Y-260.273
X414.456Y-297.873
X418.981Y-236.46
X419.219Y-259.773
X423.744Y-279.323
X423.981Y-235.96
X428.744Y-278.823
X438.031Y-236.46
X438.031Y-317.423
X442.794Y-298.373
X443.031Y-235.96
X443.031Y-316.923
X445.175Y-260.273
X447.794Y-297.873
X449.938Y-279.323
X450.175Y-259.773
X452.319Y-336.473
X454.938Y-278.823
X457.081Y-236.46
X457.319Y-335.973
X462.081Y-235.96
X480.894Y-236.46
X480.894Y-260.273
X480.894Y-279.323
X480.894Y-336.473
X485.894Y-235.96
X485.894Y-259.773
X485.894Y-278.823
X485.894Y-335.973
X499.944Y-244.96
X499.944Y-260.273
X499.944Y-279.323
X499.944Y-317.423
X499.944Y-336.473
X504.944Y-244.46
X504.944Y-259.773
X504.944Y-278.823
X504.944Y-316.923
X504.944Y-335.973
X518.994Y-236.46
X518.994Y-260.273
X518.994Y-279.323
X518.994Y-336.473
X523.994Y-235.96
X523.994Y-259.773
X523.994Y-278.823
X523.994Y-335.973
T3
G00X467.806Y-223.397
M15
G01X467.806Y-222.697
M16
G05
G00X467.806Y-228.217
M15
G01X467.806Y-227.517
M16
G05
G00X475.106Y-223.397
M15
G01X475.106Y-222.697
M16
G05
G00X475.106Y-228.217
M15
G01X475.106Y-227.517
M16
G05
T0
M30
